HIERARCHY
ROOT Hips
{
	OFFSET -0.001795 -0.223333 0.028219
	CHANNELS 6 Xposition Yposition Zposition Zrotation Yrotation Xrotation 
	JOINT LeftUpLeg
	{
		OFFSET 0.069520 -0.091406 -0.006815
		CHANNELS 3 Zrotation Yrotation Xrotation
		JOINT LeftLeg
		{
			OFFSET 0.034277 -0.375199 -0.004496
			CHANNELS 3 Zrotation Yrotation Xrotation
			JOINT LeftFoot
			{
				OFFSET -0.013596 -0.397961 -0.043693
				CHANNELS 3 Zrotation Yrotation Xrotation
				JOINT LeftToe
				{
					OFFSET 0.026358 -0.055791 0.119288
					CHANNELS 3 Zrotation Yrotation Xrotation
					End Site
					{
						OFFSET 0.000000 0.000000 0.000000
					}
				}
			}
		}
	}
	JOINT RightUpLeg
	{
		OFFSET -0.067670 -0.090522 -0.004320
		CHANNELS 3 Zrotation Yrotation Xrotation
		JOINT RightLeg
		{
			OFFSET -0.038290 -0.382569 -0.008850
			CHANNELS 3 Zrotation Yrotation Xrotation
			JOINT RightFoot
			{
				OFFSET 0.015774 -0.398415 -0.042312
				CHANNELS 3 Zrotation Yrotation Xrotation
				JOINT RightToe
				{
					OFFSET -0.025372 -0.048144 0.123348
					CHANNELS 3 Zrotation Yrotation Xrotation
					End Site
					{
						OFFSET 0.000000 0.000000 0.000000
					}
				}
			}
		}
	}
	JOINT Spine
	{
		OFFSET -0.002533 0.108963 -0.026696
		CHANNELS 3 Zrotation Yrotation Xrotation
		JOINT Spine1
		{
			OFFSET 0.005487 0.135180 0.001092
			CHANNELS 3 Zrotation Yrotation Xrotation
			JOINT Spine2
			{
				OFFSET 0.001457 0.052922 0.025425
				CHANNELS 3 Zrotation Yrotation Xrotation
				JOINT Neck
				{
					OFFSET -0.002778 0.213870 -0.042857
					CHANNELS 3 Zrotation Yrotation Xrotation
					JOINT Head
					{
						OFFSET 0.005152 0.064970 0.051349
						CHANNELS 3 Zrotation Yrotation Xrotation
						End Site
						{
							OFFSET 0.000000 0.000000 0.000000
						}
					}
				}
				JOINT LeftShoulder
				{
					OFFSET 0.078845 0.121749 -0.034090
					CHANNELS 3 Zrotation Yrotation Xrotation
					JOINT LeftArm
					{
						OFFSET 0.090977 0.030469 -0.008868
						CHANNELS 3 Zrotation Yrotation Xrotation
						JOINT LeftForeArm
						{
							OFFSET 0.259612 -0.012772 -0.027456
							CHANNELS 3 Zrotation Yrotation Xrotation
							JOINT LeftHand
							{
								OFFSET 0.249234 0.008986 -0.001171
								CHANNELS 3 Zrotation Yrotation Xrotation
								End Site
								{
									OFFSET 0.000000 0.000000 0.000000
								}
							}
						}
					}
				}
				JOINT RightShoulder
				{
					OFFSET -0.081759 0.118833 -0.038615
					CHANNELS 3 Zrotation Yrotation Xrotation
					JOINT RightArm
					{
						OFFSET -0.096012 0.032551 -0.009143
						CHANNELS 3 Zrotation Yrotation Xrotation
						JOINT RightForeArm
						{
							OFFSET -0.253742 -0.013329 -0.021401
							CHANNELS 3 Zrotation Yrotation Xrotation
							JOINT RightHand
							{
								OFFSET -0.255298 0.007772 -0.005559
								CHANNELS 3 Zrotation Yrotation Xrotation
								End Site
								{
									OFFSET 0.000000 0.000000 0.000000
								}
							}
						}
					}
				}
			}
		}
	}
}
MOTION
Frames: 8
Frame Time: 0.050000
0.416118 0.870295 -1.986102 0.031337 0.605098 12.236021 -1.188437 -3.862958 -37.206699 -2.740368 -0.307477 48.282422 16.344414 30.551839 9.040178 0.000000 0.000000 0.000000 -4.543715 3.214793 -51.081215 5.692466 -0.988631 29.468730 -10.189874 -23.736413 14.971402 0.000000 0.000000 0.000000 5.142699 -5.996397 58.881229 -6.053179 1.581035 -36.789354 -1.611841 5.367272 29.416094 12.909482 -2.211802 -41.165203 0.000000 0.000000 0.000000 -27.160796 -21.233157 10.125573 -48.723429 -19.232070 0.003408 8.615486 -36.123494 -1.084019 0.000000 0.000000 0.000000 32.308329 1.849080 1.554243 55.402912 10.647512 -3.624297 -0.368180 49.238594 3.773222 0.000000 0.000000 0.000000 
0.427827 0.864273 -2.010668 0.296569 1.667971 11.187020 -2.162718 -4.290877 -37.039165 -1.970650 -0.986987 46.939888 15.170967 29.367675 5.672408 0.000000 0.000000 0.000000 -5.240306 2.634692 -51.305628 4.732346 -0.712399 28.886241 -10.906853 -24.468774 17.434995 0.000000 0.000000 0.000000 4.289809 -5.931286 59.771348 -5.471960 1.514388 -37.368974 -1.894245 5.353416 29.859710 13.601244 -2.774675 -39.593811 0.000000 0.000000 0.000000 -26.901627 -20.809826 9.665978 -49.271273 -17.978020 -0.515550 8.571106 -36.569428 -1.114157 0.000000 0.000000 0.000000 33.379355 1.945234 1.821159 55.538482 9.519017 -4.303215 0.000769 48.840490 3.960915 0.000000 0.000000 0.000000 
0.440161 0.861804 -2.036374 0.266460 2.572406 10.655418 -2.346881 -4.582019 -37.863547 -1.966548 -1.182774 46.722767 12.815223 25.883711 2.148044 0.000000 0.000000 0.000000 -5.923791 2.098126 -51.526138 3.792333 -0.429226 28.116181 -9.839553 -22.586454 18.030280 0.000000 0.000000 0.000000 4.011262 -6.047381 59.641788 -6.651155 1.672896 -36.546230 -1.063161 4.002283 29.450039 13.434114 -3.056902 -38.756388 0.000000 0.000000 0.000000 -29.007102 -19.961832 9.714597 -47.620016 -16.491364 -1.215357 7.846652 -36.684051 -0.833837 0.000000 0.000000 0.000000 35.299424 2.458988 1.662345 53.714329 8.494419 -4.646571 2.477319 48.913491 4.778832 0.000000 0.000000 0.000000 
0.452830 0.862388 -2.061692 -0.387073 1.576122 11.097197 -1.872177 -4.433703 -39.048418 -1.727685 -1.016496 44.859058 11.566155 23.722255 0.905147 0.000000 0.000000 0.000000 -6.590966 2.142136 -53.058377 4.629393 -0.662552 28.480936 -9.137407 -21.641150 19.034682 0.000000 0.000000 0.000000 2.885843 -4.952263 59.011689 -5.259918 1.479760 -37.580646 -1.461285 5.282510 30.820479 13.045343 -2.901983 -38.156142 0.000000 0.000000 0.000000 -29.654199 -20.058456 9.494728 -46.732811 -14.445031 -1.997714 6.749660 -38.109947 -0.559570 0.000000 0.000000 0.000000 37.281257 2.818492 2.474119 52.080419 8.555137 -4.886900 3.403626 48.847552 5.253719 0.000000 0.000000 0.000000 
0.465180 0.867148 -2.085757 -0.899853 0.217007 11.408457 -1.171763 -4.106895 -40.026005 -2.222721 -0.421121 42.732958 10.663778 21.966119 2.240218 0.000000 0.000000 0.000000 -7.155245 2.351928 -54.588869 5.694817 -1.017837 32.924147 -10.163522 -23.542727 17.907832 0.000000 0.000000 0.000000 2.074328 -3.968196 58.592629 -4.783890 1.431406 -37.054787 -1.369866 4.915050 30.111145 11.203509 -2.262284 -37.451715 0.000000 0.000000 0.000000 -30.766305 -19.096803 9.255509 -46.749667 -13.077788 -2.512551 6.641869 -39.312593 -0.480460 0.000000 0.000000 0.000000 36.928127 3.715639 2.745565 51.484352 7.681466 -5.028266 5.832478 48.444167 6.054495 0.000000 0.000000 0.000000 
0.476100 0.875183 -2.108747 -1.271546 -0.616085 11.764527 -0.767138 -3.860152 -40.286104 -3.041518 0.171561 39.554690 10.538526 21.661202 3.965320 0.000000 0.000000 0.000000 -7.465095 2.553240 -56.404722 6.769275 -1.574925 41.047357 -9.400964 -22.511013 16.410210 0.000000 0.000000 0.000000 2.056400 -3.656808 58.161539 -5.178091 1.469057 -36.902871 -1.351888 4.217250 30.332656 10.609769 -1.966475 -38.694781 0.000000 0.000000 0.000000 -30.747618 -18.809457 9.524385 -47.168868 -12.765210 -2.790880 5.904238 -41.393571 -0.129118 0.000000 0.000000 0.000000 37.464088 4.614631 2.961143 51.093922 8.181834 -4.701862 5.200902 47.664220 5.529079 0.000000 0.000000 0.000000 
0.484857 0.884912 -2.131516 -1.148422 -0.624599 12.027441 -0.916529 -3.896444 -40.164285 -3.589423 0.426118 35.849393 10.013804 20.707590 6.468740 0.000000 0.000000 0.000000 -7.117480 2.746482 -56.861583 6.738010 -1.782154 50.241230 -9.714750 -22.951043 16.891321 0.000000 0.000000 0.000000 2.416912 -3.903072 58.693659 -5.546847 1.516083 -36.570807 -1.466461 3.117640 29.499255 10.022907 -1.851457 -38.342153 0.000000 0.000000 0.000000 -30.972928 -18.916445 10.067390 -47.293175 -12.600090 -2.851380 7.333156 -42.873143 -0.608088 0.000000 0.000000 0.000000 36.476078 4.945571 2.592220 51.290728 8.081956 -4.444889 4.653504 47.086678 5.031977 0.000000 0.000000 0.000000 
0.491059 0.895401 -2.154611 -0.972665 0.342520 12.094833 -1.047746 -4.120054 -40.407052 -4.048112 0.489164 33.015101 8.951108 19.069262 10.125570 0.000000 0.000000 0.000000 -7.081285 2.376463 -55.129271 7.935368 -3.105678 58.463792 -9.778954 -22.887774 16.749185 0.000000 0.000000 0.000000 2.598292 -4.392980 59.347599 -5.384366 1.485468 -37.334276 -1.666168 2.047358 30.172266 11.268258 -2.448569 -39.027303 0.000000 0.000000 0.000000 -31.509791 -19.094338 10.647812 -46.210676 -12.610571 -2.974100 7.130448 -44.232698 -0.480613 0.000000 0.000000 0.000000 36.558832 5.692236 2.771543 51.223115 8.491234 -4.217911 3.042476 46.515203 4.193292 0.000000 0.000000 0.000000 
